HIERARCHY
ROOT Hips
{
	OFFSET 0.000000 0.000000 0.000000
	CHANNELS 6 Xposition Yposition Zposition Zrotation Yrotation Xrotation 
	JOINT LHipJoint
	{
		OFFSET 0.000000 0.000000 0.000000
		CHANNELS 3 Zrotation Yrotation Xrotation
		JOINT LeftUpLeg
		{
			OFFSET 1.363060 -1.794630 0.839290
			CHANNELS 3 Zrotation Yrotation Xrotation
			JOINT LeftLeg
			{
				OFFSET 2.448110 -6.726130 0.000000
				CHANNELS 3 Zrotation Yrotation Xrotation
				JOINT LeftFoot
				{
					OFFSET 2.562200 -7.039590 0.000000
					CHANNELS 3 Zrotation Yrotation Xrotation
					JOINT LeftToeBase
					{
						OFFSET 0.157640 -0.433110 2.322550
						CHANNELS 3 Zrotation Yrotation Xrotation
						End Site
						{
							OFFSET 0.000000 0.000000 0.000000
						}
					}
				}
			}
		}
	}
	JOINT RHipJoint
	{
		OFFSET 0.000000 0.000000 0.000000
		CHANNELS 3 Zrotation Yrotation Xrotation
		JOINT RightUpLeg
		{
			OFFSET -1.305520 -1.794630 0.839290
			CHANNELS 3 Zrotation Yrotation Xrotation
			JOINT RightLeg
			{
				OFFSET -2.542530 -6.985550 0.000000
				CHANNELS 3 Zrotation Yrotation Xrotation
				JOINT RightFoot
				{
					OFFSET -2.568260 -7.056230 0.000000
					CHANNELS 3 Zrotation Yrotation Xrotation
					JOINT RightToeBase
					{
						OFFSET -0.164730 -0.452590 2.363150
						CHANNELS 3 Zrotation Yrotation Xrotation
						End Site
						{
							OFFSET 0.000000 0.000000 0.000000
						}
					}
				}
			}
		}
	}
	JOINT LowerBack
	{
		OFFSET 0.000000 0.000000 0.000000
		CHANNELS 3 Zrotation Yrotation Xrotation
		JOINT Spine
		{
			OFFSET 0.028270 2.035590 -0.193380
			CHANNELS 3 Zrotation Yrotation Xrotation
			JOINT Spine1
			{
				OFFSET 0.056720 2.048850 -0.042750
				CHANNELS 3 Zrotation Yrotation Xrotation
				JOINT Neck
				{
					OFFSET 0.000000 0.000000 0.000000
					CHANNELS 3 Zrotation Yrotation Xrotation
					JOINT Neck1
					{
						OFFSET -0.054170 1.746240 0.172020
						CHANNELS 3 Zrotation Yrotation Xrotation
						JOINT Head
						{
							OFFSET 0.104070 1.761360 -0.123970
							CHANNELS 3 Zrotation Yrotation Xrotation
							End Site
							{
								OFFSET 0.000000 0.000000 0.000000
							}
						}
					}
				}
				JOINT LeftShoulder
				{
					OFFSET 0.000000 0.000000 0.000000
					CHANNELS 3 Zrotation Yrotation Xrotation
					JOINT LeftArm
					{
						OFFSET 3.362410 1.200890 -0.311210
						CHANNELS 3 Zrotation Yrotation Xrotation
						JOINT LeftForeArm
						{
							OFFSET 4.983000 -0.000000 -0.000000
							CHANNELS 3 Zrotation Yrotation Xrotation
							JOINT LeftHand
							{
								OFFSET 3.483560 -0.000000 -0.000000
								CHANNELS 3 Zrotation Yrotation Xrotation
								JOINT LeftFingerBase
								{
									OFFSET 0.000000 0.000000 0.000000
									CHANNELS 3 Zrotation Yrotation Xrotation
									JOINT LeftHandIndex1
									{
										OFFSET 0.715260 -0.000000 -0.000000
										CHANNELS 3 Zrotation Yrotation Xrotation
										End Site
										{
											OFFSET 0.000000 0.000000 0.000000
										}
									}
								}
								JOINT LThumb
								{
									OFFSET 0.000000 0.000000 0.000000
									CHANNELS 3 Zrotation Yrotation Xrotation
									End Site
									{
										OFFSET 0.000000 0.000000 0.000000
									}
								}
							}
						}
					}
				}
				JOINT RightShoulder
				{
					OFFSET 0.000000 0.000000 0.000000
					CHANNELS 3 Zrotation Yrotation Xrotation
					JOINT RightArm
					{
						OFFSET -3.136600 1.374050 -0.404650
						CHANNELS 3 Zrotation Yrotation Xrotation
						JOINT RightForeArm
						{
							OFFSET -5.241900 -0.000000 -0.000000
							CHANNELS 3 Zrotation Yrotation Xrotation
							JOINT RightHand
							{
								OFFSET -3.444170 -0.000000 -0.000000
								CHANNELS 3 Zrotation Yrotation Xrotation
								JOINT RightFingerBase
								{
									OFFSET 0.000000 0.000000 0.000000
									CHANNELS 3 Zrotation Yrotation Xrotation
									JOINT RightHandIndex1
									{
										OFFSET -0.622530 -0.000000 -0.000000
										CHANNELS 3 Zrotation Yrotation Xrotation
										End Site
										{
											OFFSET 0.000000 0.000000 0.000000
										}
									}
								}
								JOINT RThumb
								{
									OFFSET 0.000000 0.000000 0.000000
									CHANNELS 3 Zrotation Yrotation Xrotation
									End Site
									{
										OFFSET 0.000000 0.000000 0.000000
									}
								}
							}
						}
					}
				}
			}
		}
	}
}
MOTION
Frames: 4
Frame Time: 0.008333
1.803341 17.753248 -36.528637 -1.970681 6.036772 5.780546 0.782312 0.452655 0.132424 -21.051642 -6.223636 -11.887390 1.619804 9.763463 27.551385 1.829636 -7.131196 -11.646416 0.002300 0.309000 0.849000 -2.971578 -0.576361 -1.071220 24.887214 1.243485 -17.998077 -4.611462 -12.998374 39.465662 -1.069273 3.542781 -13.638383 -0.310800 -3.583800 9.908500 -3.895113 -2.373603 4.186456 0.814139 -3.083114 -0.246683 4.966417 -2.148844 3.026576 -7.989724 -4.891325 -2.457889 2.119767 -5.825208 34.192469 0.750100 -3.044300 15.192800 1.139621 5.212937 -0.366996 -86.445445 6.301075 11.328822 19.142944 -30.917338 -5.044565 0.468405 -0.173937 9.435448 2.490489 41.353236 1.325200 -7.125000 0.000000 0.000000 -45.314900 65.986300 -25.130000 -0.476469 -4.709702 -1.135013 83.469927 1.538230 -8.307072 -8.745313 16.445600 -0.510375 1.453913 -0.161448 6.334950 -23.380285 28.177466 -12.200300 7.125000 0.000000 0.000000 3.246400 0.176300 3.261600 
1.801915 17.745607 -36.521302 -2.005976 6.048988 5.782217 0.787337 0.451770 0.134205 -21.002749 -6.232101 -11.926440 1.641765 9.803676 27.675210 1.852302 -7.157591 -11.840970 0.000200 -0.098200 -0.269900 -2.976728 -0.577238 -1.092505 24.979455 1.050008 -17.469056 -4.400546 -12.704677 38.423987 -1.137462 4.232697 -13.551333 -0.451300 -4.309900 11.950200 -3.807526 -2.385239 4.089410 0.784275 -3.092865 -0.235378 4.821139 -2.146320 3.070555 -8.052962 -4.683668 -2.165239 2.306932 -5.583430 33.967444 0.883800 -2.939600 14.943300 1.134853 5.211331 -0.361803 -86.329494 6.455551 11.760682 19.562512 -31.431338 -5.251243 0.470214 -0.165485 8.625760 2.121738 42.215400 1.099700 -7.125000 0.000000 0.000000 -47.091600 66.463700 -26.795100 -0.485133 -4.719859 -1.120207 83.568808 1.565906 -8.416871 -8.688557 16.343226 -0.472929 1.463088 -0.187718 6.477516 -23.604611 28.714664 -12.543400 7.125000 0.000000 0.000000 3.187800 0.799800 3.237000 
1.797432 17.742958 -36.512744 -2.006264 6.014125 5.750378 0.792658 0.452939 0.141962 -20.995029 -6.185728 -11.982001 1.678205 9.865591 27.868361 1.885875 -7.245206 -12.058335 0.000100 -0.074900 -0.205700 -2.976244 -0.577378 -1.108147 25.094880 1.018671 -16.871488 -4.178284 -12.424345 37.417159 -1.136890 3.515698 -14.463711 -0.319000 -3.630700 10.039900 -3.820432 -2.391411 4.131175 0.753649 -3.102559 -0.266004 4.739372 -2.139793 2.947134 -8.135555 -4.433505 -1.944352 2.461673 -5.259395 33.966913 1.013800 -2.807000 14.863400 1.135155 5.204308 -0.359178 -86.262537 6.425806 11.712382 19.673947 -31.571750 -5.328536 0.470670 -0.162282 8.162873 2.322107 41.095242 1.208500 -7.125000 0.000000 0.000000 -45.053600 65.755900 -24.729800 -0.494721 -4.719325 -1.117888 83.645841 1.353812 -8.134895 -8.697448 16.348203 -0.474920 1.464296 -0.179811 6.252255 -23.689118 28.685862 -12.577600 7.125000 0.000000 0.000000 3.133400 0.785000 3.180800 
1.789893 17.737457 -36.507141 -2.161423 6.101207 5.684957 0.795913 0.456080 0.142877 -20.796099 -6.408174 -11.908766 1.705753 9.923195 28.050177 1.870544 -7.090528 -12.131593 0.001200 -0.226000 -0.621000 -2.987924 -0.579553 -1.133869 25.398125 0.890747 -16.281524 -3.975046 -12.156362 36.472277 -1.140295 3.018218 -15.143192 -0.309200 -3.575100 9.884400 -3.735522 -2.351454 4.151234 0.767806 -3.046421 -0.232990 4.744877 -2.117116 3.025578 -8.100466 -4.408866 -2.039347 2.473503 -5.213684 33.939492 1.014900 -2.779300 14.867900 1.136721 5.205899 -0.361502 -86.256146 6.348947 12.152226 20.094645 -32.076880 -5.531620 0.469181 -0.157487 7.521276 2.395202 42.572957 1.295500 -7.125000 0.000000 0.000000 -47.456700 66.789800 -27.377800 -0.490627 -4.721650 -1.115124 83.700609 1.403968 -8.122313 -8.756732 16.448155 -0.479268 1.471831 -0.171305 5.939670 -24.084352 28.854811 -12.862900 7.125000 0.000000 0.000000 2.922200 1.039300 2.978500 
